<?xml version="1.0" standalone="no"?>
<!DOCTYPE svg PUBLIC "-//W3C//DTD SVG 20010904//EN"
 "http://www.w3.org/TR/2001/REC-SVG-20010904/DTD/svg10.dtd">
<svg version="1.0" xmlns="http://www.w3.org/2000/svg"
 width="1500.000000pt" height="1500.000000pt" viewBox="0 0 1500.000000 1500.000000"
 preserveAspectRatio="xMidYMid meet">

<g transform="translate(0.000000,1500.000000) scale(0.100000,-0.100000)"
fill="#000000" stroke="none">
<path d="M8395 14988 c-8 -23 -234 -1463 -229 -1467 3 -4 666 -110 690 -111
12 0 52 246 42 256 -3 3 -101 20 -217 38 -116 18 -214 36 -217 38 -6 7 47 351
56 362 5 4 97 -6 205 -23 108 -17 206 -31 219 -31 22 0 24 7 40 121 9 67 15
123 12 126 -2 3 -100 20 -216 38 -117 19 -214 36 -217 39 -6 6 42 314 50 323
4 3 96 -8 204 -26 109 -17 207 -31 219 -31 19 0 22 11 39 120 9 67 15 124 11
127 -3 4 -145 28 -314 54 -169 27 -322 51 -340 54 -22 4 -34 2 -37 -7z"/>
<path d="M6292 14960 c-51 -9 -95 -20 -99 -23 -5 -6 229 -1411 243 -1458 4
-14 17 -13 129 5 102 16 125 23 125 37 0 15 -232 1363 -246 1432 -7 32 -15 33
-152 7z"/>
<path d="M4277 14326 c-54 -29 -103 -58 -108 -63 -7 -7 38 -160 141 -473 83
-254 149 -464 147 -467 -3 -2 -133 159 -290 359 -156 200 -293 374 -304 387
l-20 24 -111 -59 c-62 -32 -112 -62 -112 -66 0 -7 906 -1116 944 -1156 l23
-23 116 62 c67 35 117 68 117 77 0 22 -433 1452 -439 1451 -3 0 -50 -24 -104
-53z"/>
<path d="M10632 13628 c-57 -96 -95 -179 -87 -187 9 -8 365 -201 371 -201 9 0
114 211 110 219 -6 9 -358 201 -369 201 -3 0 -14 -15 -25 -32z"/>
<path d="M12350 12289 c-294 -258 -546 -481 -559 -493 l-23 -24 143 -158 c150
-167 189 -203 254 -237 139 -71 324 -60 450 27 83 57 547 474 582 523 65 92
93 213 74 318 -19 104 -59 167 -221 348 -83 92 -154 167 -158 167 -4 0 -248
-212 -542 -471z m652 -48 c10 -20 17 -49 17 -66 0 -68 -27 -100 -289 -332
-140 -124 -269 -232 -287 -239 -41 -18 -104 -18 -146 -1 -18 8 -61 44 -95 82
-62 65 -63 68 -45 85 10 10 175 156 367 324 l348 307 57 -62 c31 -34 64 -78
73 -98z"/>
<path d="M2049 12652 c-294 -98 -380 -482 -157 -698 29 -29 170 -154 313 -279
281 -246 325 -276 445 -294 181 -29 362 64 442 227 61 124 47 304 -33 426 -49
74 -615 560 -698 599 -84 40 -224 48 -312 19z m208 -255 c12 -7 148 -122 303
-256 310 -267 316 -274 308 -370 -4 -48 -10 -59 -44 -91 -46 -43 -96 -56 -153
-40 -35 9 -192 139 -569 471 -80 70 -99 137 -62 215 40 82 136 113 217 71z"/>
<path d="M585 10483 c-4 -10 -24 -68 -45 -130 l-38 -111 105 -142 c58 -78 103
-143 102 -145 -2 -2 -79 -24 -170 -50 l-167 -47 -45 -131 c-25 -72 -45 -132
-44 -133 9 -8 1403 -484 1411 -481 13 4 88 229 78 238 -4 3 -227 82 -497 174
-269 92 -501 172 -515 178 -21 8 2 16 155 59 99 27 183 53 188 57 4 4 -28 54
-71 112 -43 57 -95 127 -115 156 l-38 52 248 -84 c136 -46 369 -124 517 -174
148 -50 274 -91 280 -91 13 0 91 228 82 237 -8 8 -1385 473 -1401 473 -7 0
-16 -8 -20 -17z"/>
<path d="M14340 10390 c-41 -16 -352 -128 -690 -249 -338 -122 -617 -225 -621
-229 -8 -8 124 -372 160 -441 35 -67 108 -134 193 -176 67 -32 89 -38 165 -42
95 -6 168 9 247 49 51 26 147 117 172 163 22 40 18 40 75 19 184 -66 369 -10
480 145 57 80 83 171 76 274 -4 71 -15 111 -83 296 -44 118 -83 215 -89 216
-5 2 -44 -10 -85 -25z m-22 -406 c31 -89 33 -103 23 -140 -6 -23 -21 -54 -33
-69 -26 -33 -91 -65 -133 -65 -37 0 -104 30 -127 57 -16 17 -91 203 -85 209 7
8 304 112 312 110 5 -1 25 -47 43 -102z m-550 -271 c13 -146 -139 -248 -272
-183 -25 12 -55 34 -65 49 -23 32 -73 160 -68 174 1 5 81 38 177 72 l175 63
24 -62 c13 -33 26 -84 29 -113z"/>
<path d="M6000 9019 c-155 -94 -181 -140 -188 -334 -5 -162 12 -379 36 -465
31 -106 189 -505 257 -646 71 -150 131 -243 260 -404 127 -158 221 -258 560
-595 161 -159 313 -319 340 -355 70 -95 99 -162 92 -216 l-5 -44 258 0 c297 0
293 -1 271 78 -33 123 -200 303 -636 682 -431 376 -657 611 -827 864 -78 117
-125 211 -208 420 -170 428 -167 418 -180 566 -22 250 -11 348 46 448 14 24
24 46 22 51 -2 4 -46 -18 -98 -50z"/>
<path d="M6415 9069 c-72 -10 -107 -26 -124 -57 -5 -10 -11 -108 -12 -218 l-3
-199 82 -242 c142 -419 179 -488 418 -779 169 -206 242 -272 1025 -920 325
-269 448 -388 541 -519 40 -57 58 -103 58 -151 l0 -34 265 0 265 0 0 39 c0 85
-113 247 -270 387 -81 72 -379 309 -890 709 -477 373 -539 426 -657 557 -256
287 -321 382 -374 538 -29 86 -31 103 -26 185 8 157 63 255 143 255 54 0 423
-124 409 -138 -3 -3 -35 -9 -70 -13 -36 -3 -72 -13 -82 -20 -27 -23 -55 -99
-55 -151 0 -58 49 -161 150 -313 129 -196 234 -283 1037 -870 375 -274 610
-450 755 -564 126 -99 305 -279 363 -366 48 -71 87 -173 87 -226 l0 -29 249 0
c137 0 256 3 265 6 20 8 20 46 0 115 -40 134 -140 278 -313 449 -142 140 -225
206 -482 380 -109 74 -294 207 -411 296 -201 152 -298 222 -833 593 -241 168
-272 193 -317 264 -62 97 -95 284 -56 323 25 25 123 20 244 -12 369 -98 461
-85 643 89 59 58 131 144 131 158 0 5 -58 9 -130 9 l-130 0 -37 -33 c-128
-113 -296 -137 -493 -71 l-85 28 115 7 c113 6 162 19 205 53 18 14 10 15 -112
16 -110 0 -141 -3 -184 -20 -29 -12 -68 -24 -86 -28 l-34 -7 89 -63 c88 -62
144 -112 126 -112 -5 0 -25 4 -44 9 -19 5 -52 12 -73 16 -48 8 -85 40 -212
190 -100 118 -171 185 -194 185 -16 0 -14 -5 23 -57 36 -52 142 -230 152 -258
7 -16 3 -17 -35 -11 -91 14 -154 67 -231 191 -69 111 -219 304 -248 319 -15 8
-92 37 -171 65 -159 57 -237 68 -366 50z"/>
<path d="M5619 8723 c-67 -77 -96 -149 -124 -318 -56 -335 -56 -440 1 -693 82
-367 224 -668 504 -1067 227 -324 260 -374 295 -447 37 -76 46 -148 25 -202
l-10 -26 258 0 c187 0 261 3 270 12 7 7 12 32 12 57 0 94 -83 221 -309 474
-388 434 -524 621 -656 900 -91 194 -215 546 -235 673 -24 145 -7 563 26 643
17 41 17 41 0 41 -8 0 -33 -21 -57 -47z"/>
<path d="M5243 8607 c-25 -14 -68 -66 -60 -73 7 -8 137 65 137 77 0 13 -51 10
-77 -4z"/>
<path d="M8859 8586 c-16 -7 -67 -86 -149 -230 -69 -120 -133 -222 -141 -226
-9 -5 -64 1 -140 16 -68 13 -151 24 -184 24 -63 -1 -102 -18 -92 -43 5 -14
227 -157 365 -235 40 -23 137 -70 214 -104 156 -68 229 -118 303 -208 79 -96
420 -410 504 -464 281 -182 346 -231 485 -366 150 -146 250 -275 359 -465 49
-87 101 -225 112 -298 4 -26 10 -49 14 -51 3 -2 123 -7 265 -11 l259 -7 -6 60
c-4 33 -18 90 -33 128 -64 167 -66 183 -58 484 4 177 3 284 -4 301 -5 14 -81
115 -168 225 -229 290 -257 324 -264 324 -4 0 -10 -18 -14 -41 -11 -67 -31
-97 -76 -110 -66 -20 -134 2 -370 116 -246 118 -408 186 -660 275 -262 92
-300 107 -341 136 -41 28 -84 87 -95 128 -6 25 -29 52 -67 79 -17 11 -9 31
107 276 69 145 128 271 130 280 5 14 -9 16 -113 18 -74 1 -127 -3 -142 -11z"/>
<path d="M9386 8568 c-8 -13 -53 -125 -100 -251 -94 -250 -103 -270 -142 -316
l-26 -31 46 -20 c84 -36 119 -41 168 -26 66 20 151 79 175 123 23 42 133 426
133 464 0 15 -12 37 -28 52 -26 25 -34 27 -120 27 -84 0 -93 -2 -106 -22z"/>
<path d="M5304 8474 c-60 -42 -149 -104 -199 -137 -111 -74 -193 -151 -253
-237 -25 -36 -60 -83 -78 -105 -36 -46 -58 -85 -51 -91 6 -7 149 113 310 259
115 104 157 134 157 109 0 -4 -43 -50 -96 -102 -53 -52 -169 -176 -259 -275
-160 -177 -265 -282 -420 -420 -58 -51 -125 -133 -261 -315 -100 -135 -180
-247 -178 -249 13 -13 259 195 374 315 112 118 184 203 350 419 84 107 156
195 162 195 16 0 8 -14 -127 -231 -250 -400 -432 -642 -663 -880 l-102 -106 2
-171 3 -171 65 81 c293 363 423 573 752 1213 147 286 262 484 275 472 3 -4
-17 -57 -45 -119 -85 -192 -237 -572 -320 -804 -44 -121 -107 -283 -140 -360
-44 -102 -63 -160 -72 -219 -18 -126 -47 -238 -80 -311 -31 -68 -102 -175
-139 -208 -11 -11 -21 -23 -21 -28 0 -4 112 -8 249 -8 l249 0 32 26 c38 33 84
121 99 192 16 75 14 245 -5 397 -26 208 -23 334 13 510 17 83 41 204 53 269
33 176 147 549 220 718 43 100 119 238 132 238 14 0 9 -19 -31 -129 -41 -111
-100 -337 -126 -481 -8 -47 -20 -202 -26 -345 l-11 -260 41 -164 c23 -89 69
-248 101 -351 79 -248 100 -339 100 -431 0 -65 -4 -85 -30 -135 -16 -32 -30
-60 -30 -61 0 -6 486 -2 507 3 34 9 57 81 49 149 -9 82 -37 147 -177 415 -253
484 -340 741 -358 1059 -17 284 22 559 117 829 40 111 40 112 17 112 -12 0
-71 -34 -131 -76z"/>
<path d="M9865 8208 c-2 -13 -12 -59 -20 -103 -22 -110 -57 -179 -108 -213
-38 -25 -49 -27 -175 -31 l-135 -3 199 -74 c242 -91 303 -107 372 -102 86 7
135 58 147 153 l7 51 -132 167 c-72 91 -135 169 -140 172 -5 3 -12 -4 -15 -17z"/>
<path d="M621 8074 c-114 -24 -205 -75 -290 -162 -88 -89 -123 -149 -151 -258
-78 -302 89 -605 385 -700 206 -66 424 -14 581 141 151 148 207 353 154 559
-28 109 -63 169 -151 258 -58 59 -94 86 -150 113 -130 61 -251 77 -378 49z"/>
<path d="M14141 8074 c-114 -24 -205 -75 -290 -162 -88 -89 -123 -149 -151
-258 -78 -302 89 -605 385 -700 206 -66 424 -14 581 141 151 148 207 353 154
559 -28 109 -63 169 -151 258 -58 59 -94 86 -150 113 -130 61 -251 77 -378 49z"/>
<path d="M981 5660 c-387 -132 -706 -241 -708 -243 -3 -4 75 -238 82 -245 1
-1 240 78 531 177 290 99 529 179 530 178 2 -1 -49 -71 -112 -154 -63 -84
-114 -156 -114 -160 0 -5 80 -30 178 -57 97 -27 181 -52 185 -56 5 -4 -24 -19
-65 -32 -324 -109 -965 -333 -972 -339 -7 -6 53 -206 72 -236 5 -8 216 61 717
234 391 135 713 248 717 252 5 5 -75 258 -86 269 -2 2 -75 23 -162 48 -88 24
-165 46 -172 49 -7 3 26 56 93 146 58 78 105 146 105 152 0 7 -19 67 -42 134
-30 85 -48 123 -58 122 -8 0 -332 -108 -719 -239z"/>
<path d="M13438 5767 c-105 -30 -215 -120 -262 -217 -29 -59 -170 -449 -164
-455 7 -7 1420 -526 1423 -523 2 2 38 98 80 213 58 160 78 227 82 280 10 133
-33 251 -129 351 -63 66 -130 105 -223 129 -90 23 -160 18 -280 -20 -17 -5
-24 2 -43 40 -34 71 -106 141 -181 177 -58 28 -78 32 -161 35 -57 2 -114 -3
-142 -10z m179 -258 c61 -23 113 -95 113 -156 0 -38 -61 -213 -74 -213 -14 0
-298 101 -309 110 -10 8 57 186 80 212 42 48 131 70 190 47z m568 -220 c87
-24 145 -98 145 -185 0 -41 -45 -194 -58 -194 -2 0 -85 30 -183 66 l-178 66
30 81 c34 95 74 142 139 162 56 17 57 17 105 4z"/>
<path d="M12246 3689 c-53 -13 -135 -55 -170 -87 -51 -48 -316 -350 -316 -361
0 -13 1119 -1013 1130 -1009 4 2 72 75 149 163 158 178 204 255 223 367 21
127 -19 266 -102 361 -50 56 -518 472 -574 510 -86 58 -231 82 -340 56z m176
-267 c60 -31 541 -465 561 -506 9 -21 17 -60 17 -89 0 -59 -19 -96 -91 -175
l-46 -51 -369 330 c-203 180 -368 331 -367 335 0 3 31 39 68 80 85 94 148 116
227 76z"/>
<path d="M2585 3620 c-33 -11 -85 -38 -115 -62 -96 -73 -565 -484 -608 -533
-102 -115 -126 -311 -58 -461 105 -229 418 -312 629 -165 88 61 604 523 640
573 86 119 102 302 38 432 -42 85 -112 156 -198 198 -60 29 -77 33 -167 35
-79 2 -114 -1 -161 -17z m237 -265 c15 -11 36 -37 49 -58 26 -47 23 -124 -8
-165 -30 -41 -553 -500 -595 -522 -74 -40 -170 -17 -215 50 -28 40 -31 113 -7
164 17 35 544 503 607 539 42 24 132 19 169 -8z"/>
<path d="M4311 2338 c-36 -115 -431 -1451 -429 -1453 18 -14 247 -129 251
-125 52 59 967 1192 967 1197 0 8 -209 123 -223 123 -3 0 -144 -178 -312 -396
-169 -217 -309 -394 -311 -392 -2 2 64 213 146 468 82 256 150 472 150 482 0
11 -35 34 -102 70 -57 29 -108 54 -115 56 -6 2 -16 -12 -22 -30z"/>
<path d="M10718 1668 c-104 -56 -188 -105 -188 -108 0 -6 107 -209 115 -218 4
-5 385 203 385 211 0 13 -111 217 -118 216 -4 0 -91 -46 -194 -101z"/>
<path d="M8620 1579 c-129 -21 -286 -45 -347 -55 -103 -15 -113 -18 -113 -38
0 -35 223 -1470 229 -1478 6 -7 699 97 708 106 5 5 -33 245 -41 253 -3 4 -100
-8 -214 -25 -114 -18 -214 -32 -223 -32 -12 0 -21 36 -43 186 -16 102 -27 187
-25 188 2 2 101 18 219 36 118 18 218 36 222 39 7 6 -10 136 -28 224 -7 34 -5
34 -240 -3 -104 -16 -196 -30 -204 -30 -12 0 -21 36 -41 166 -14 91 -23 167
-20 168 3 2 103 19 221 37 118 18 217 34 219 36 6 4 -31 253 -38 257 -3 1
-112 -14 -241 -35z"/>
<path d="M6430 1493 c-6 -38 -64 -374 -129 -748 -65 -374 -117 -681 -116 -683
5 -6 255 -45 259 -41 4 5 256 1492 253 1495 -2 3 -238 44 -250 44 -3 0 -10
-30 -17 -67z"/>
</g>
</svg>
