<svg xmlns="http://www.w3.org/2000/svg" version="1.1" xmlns:xlink="http://www.w3.org/1999/xlink" xmlns:svgjs="http://svgjs.dev/svgjs" width="1500" height="1500" viewBox="0 0 1500 1500"><rect width="1500" height="1500" fill="#ffffff"></rect><g transform="matrix(0.6666666666666666,0,0,0.6666666666666666,250,250.0003487053417)"><svg viewBox="0 0 280 280" data-background-color="#f1f1f1" preserveAspectRatio="xMidYMid meet" height="1500" width="1500" xmlns="http://www.w3.org/2000/svg" xmlns:xlink="http://www.w3.org/1999/xlink"><g id="tight-bounds" transform="matrix(1,0,0,1,0,0.0000976374956849213)"><svg viewBox="0 0 280 280" height="280" width="280"><g><svg viewBox="0 0 280 280" height="280" width="280"><g><svg viewBox="0 0 280 280" height="280" width="280"><g id="textblocktransform"><svg viewBox="0 0 280 280" height="280" width="280" id="textblock"><g><svg viewBox="0 0 280 280" height="280" width="280"><g transform="matrix(1,0,0,1,74.00336708925556,110.49562317769933)"><svg viewBox="0 0 131.99326582148888 59.00875364460134" height="59.00875364460134" width="131.99326582148888"><g id="icon-0"><svg xmlns="http://www.w3.org/2000/svg" xmlns:xlink="http://www.w3.org/1999/xlink" version="1.0" x="0" y="0" viewBox="5 32.65300000000001 90.02058228862379 40.24449527900199" enable-background="new 0 0 100 100" xml:space="preserve" height="59.00875364460134" width="131.99326582148888" class="icon-xg-0" data-fill-palette-color="accent" id="xg-0"><g fill="#252ad0" data-fill-palette-color="accent"><path fill="#000000" d="M79.831 68.229c-1.856-2.528-4.197-4.547-6.745-6.347-1.355-0.954-2.818-1.743-4.122-2.777-1.387-1.101-2.801-2.17-4.228-3.216-3.878-2.849-7.881-5.52-11.81-8.298-1.639-1.16-2.377-2.861-2.487-4.833-0.047-0.854 0.358-1.18 1.245-1.098 0.8 0.075 1.592 0.199 2.359 0.443 1.374 0.439 2.775 0.727 4.225 0.736 0.71 0.004 1.387-0.165 1.971-0.547 1.36-0.883 2.504-2.001 3.421-3.343 0.021-0.028-0.018-0.097-0.042-0.201-0.955 0-1.923 0.015-2.89-0.008-0.341-0.008-0.562 0.118-0.789 0.354-0.628 0.655-1.415 1.052-2.281 1.284-1.757 0.468-3.396-0.014-5.188-0.659 1.573-0.155 3.113 0.316 4.447-1.005-1.141 0-2.099-0.036-3.055 0.009-0.949 0.046-1.727 0.779-2.732 0.698 1.096 0.722 2.148 1.433 3.104 2.31-0.525-0.064-1.012-0.284-1.512-0.312-0.753-0.044-1.198-0.495-1.646-0.99-0.11-0.125-0.206-0.26-0.315-0.385-0.95-1.081-1.79-2.261-2.91-3.186-0.203-0.167-0.373-0.441-0.757-0.253 1.011 1.257 1.712 2.691 2.523 4.06-0.036 0.048-0.072 0.096-0.107 0.142-0.983-0.067-1.759-0.45-2.381-1.14-0.142-0.158-0.278-0.333-0.405-0.525-0.428-0.644-0.781-1.35-1.252-1.938-0.657-0.823-1.261-1.68-1.884-2.524-0.212-0.287-0.483-0.44-0.8-0.555-0.984-0.359-1.974-0.706-2.949-1.087-1.347-0.528-2.72-0.375-4.094-0.192-0.948 0.126-1.432 0.768-1.328 1.838 0.08 0.827 0.145 1.668 0.015 2.488-0.135 0.854 0.009 1.665 0.254 2.453 0.449 1.447 0.96 2.875 1.461 4.307 0.567 1.62 1.179 3.238 2.154 4.649 2.021 2.925 4.33 5.624 7.04 7.932 3.181 2.712 6.453 5.316 9.66 7.999 1.868 1.564 3.724 3.151 5.282 5.041 0.695 0.841 1.312 1.719 1.176 2.914 0.264 0.02 0.482 0.049 0.701 0.051 1.773 0.026 3.547 0.05 5.32 0.069 0.797 0.009 0.841-0.057 0.737-0.854-0.044-0.335-0.169-0.638-0.313-0.938-0.276-0.578-0.651-1.089-1.051-1.588-1.42-1.766-3.211-3.131-4.963-4.527-3.829-3.054-7.713-6.038-11.554-9.077-1.454-1.148-2.969-2.231-4.256-3.577-1.34-1.402-2.589-2.883-3.822-4.382-0.966-1.173-1.628-2.455-2.069-3.916-0.446-1.478-0.25-2.844 0.287-4.205 0.361-0.912 1.044-1.201 1.994-0.916 0.792 0.24 1.582 0.491 2.363 0.762 0.798 0.277 1.584 0.589 2.376 0.885-0.238 0.11-0.452 0.109-0.667 0.11-1.404 0.009-1.683 0.248-2.115 1.583-0.216 0.667-0.066 1.253 0.205 1.836 0.222 0.478 0.473 0.94 0.736 1.393 1.135 1.954 2.487 3.759 4.263 5.153 5.768 4.527 11.819 8.676 17.646 13.125 1.673 1.278 3.352 2.546 4.804 4.082 1.371 1.45 2.688 2.941 2.78 5.204 2.048 0 4.042 0 6.034 0.001 0.771 0 0.81-0.046 0.684-0.8C81.346 70.542 80.65 69.349 79.831 68.229z" data-fill-palette-color="accent"></path><path fill="#000000" d="M27.882 67.337c-0.868-1.695-1.802-3.356-2.637-5.066-1.553-3.185-2.857-6.423-3.188-10.032-0.317-3.458 0.062-6.784 1.013-10.085 0.265-0.919 0.608-1.811 0.965-2.693-0.429-0.228-0.681 0.027-0.957 0.199-1.291 0.807-2.471 1.781-3.762 2.578-1.325 0.819-2.383 1.859-3.213 3.156-0.5 0.779-1.196 1.421-1.587 2.276 0.328 0.019 0.531-0.187 0.731-0.382 0.026-0.025 0.052-0.049 0.079-0.075 0.002-0.002 0.005-0.003 0.007-0.006 0.032-0.029 0.065-0.056 0.097-0.084 1.523-1.199 2.894-2.573 4.359-3.837 0.212-0.183 0.391-0.445 0.702-0.469 0.167 0.312-0.071 0.403-0.195 0.516-1.853 1.672-3.472 3.564-5.132 5.42-1.143 1.279-2.292 2.567-3.66 3.609-1.002 0.764-1.843 1.638-2.572 2.66-1.256 1.759-2.572 3.477-3.879 5.234 0.116 0.021 0.185 0.057 0.217 0.035 0.186-0.119 0.364-0.25 0.541-0.382 2.885-2.15 5.309-4.757 7.506-7.586 1.034-1.33 2.057-2.668 3.085-4.002 0.05 0.08 0.1 0.16 0.15 0.24-0.786 1.263-1.571 2.529-2.358 3.791-2.244 3.599-4.719 7.019-7.659 10.093C6.036 62.964 5.52 63.464 5 63.96v4.642c0.294-0.461 0.581-0.926 0.939-1.339 1.563-1.798 3.013-3.681 4.261-5.712 2.3-3.738 4.321-7.63 6.284-11.551 0.727-1.454 1.519-2.869 2.468-4.192 0.056 0.04 0.112 0.079 0.168 0.119-0.278 0.572-0.585 1.132-0.827 1.717-1.367 3.314-2.791 6.604-3.949 10.002-0.633 1.855-1.348 3.68-2.182 5.453-0.227 0.485-0.367 0.979-0.442 1.5-0.064 0.438-0.121 0.876-0.191 1.313-0.36 2.238-1.165 4.258-2.872 5.833-0.028 0.025-0.009 0.103-0.016 0.232 2.052 0 4.098-0.01 6.145 0.01 0.356 0.002 0.558-0.168 0.76-0.409 0.832-0.998 1.198-2.165 1.267-3.441 0.078-1.416-0.065-2.823-0.238-4.225-0.223-1.812-0.434-3.588 0.042-5.423 0.566-2.189 0.693-4.478 1.371-6.65 0.729-2.342 1.339-4.728 2.342-6.978 0.444-0.995 0.936-1.968 1.597-2.872 0.226 0.371-0.021 0.637-0.126 0.898-0.944 2.313-1.51 4.731-1.947 7.179-0.44 2.467-0.319 4.971-0.379 7.461-0.005 0.164 0.025 0.333 0.065 0.492 0.294 1.18 0.582 2.36 0.897 3.534 0.538 1.998 1.313 3.925 1.798 5.938 0.369 1.529 0.609 3.061-0.488 4.437-0.016 0.021 0.029 0.089 0.064 0.188 1.921 0 3.86-0.002 5.798 0 0.842 0 0.985-0.112 1.191-0.912 0.091-0.354 0.11-0.703 0.061-1.068C28.726 69.135 28.336 68.221 27.882 67.337z" data-fill-palette-color="accent"></path><path fill="#000000" d="M14.505 47.684c0.001 0 0.002 0 0.004-0.002 0.002-0.004 0.005-0.008 0.006-0.013-0.008-0.001-0.016-0.001-0.024-0.001C14.497 47.674 14.5 47.68 14.505 47.684z" data-fill-palette-color="accent"></path><path fill="#000000" d="M14.489 47.78c0.012-0.003 0.021-0.008 0.027-0.015 0.004-0.005 0.005-0.011 0.006-0.016 0.001-0.002 0.003-0.004 0.004-0.008 0-0.008 0-0.015-0.004-0.024 0-0.001 0-0.001 0-0.002-0.003-0.01-0.009-0.02-0.017-0.031-0.037 0.019-0.074 0.039-0.111 0.059C14.426 47.757 14.463 47.789 14.489 47.78z" data-fill-palette-color="accent"></path><path fill="#000000" d="M94.996 72.358c-0.134-0.822-0.309-1.646-0.669-2.385-0.715-1.457-0.714-2.984-0.605-4.536 0.098-1.437 0.137-2.876 0.106-4.316-0.011-0.475-0.161-0.83-0.455-1.193-1.201-1.482-2.36-2.999-3.562-4.482-0.549-0.676-1.029-1.415-1.674-2.03-0.17 0.218-0.098 0.416-0.115 0.597-0.113 1.188-0.621 1.615-1.799 1.517-0.701-0.059-1.341-0.321-1.963-0.614-1.42-0.674-2.814-1.403-4.243-2.053-2.938-1.337-5.987-2.395-9.04-3.432-1.293-0.439-2.254-1.133-2.639-2.489-0.081-0.28-0.242-0.483-0.496-0.633-0.201-0.118-0.448-0.202-0.509-0.342 1.134-2.403 2.229-4.722 3.376-7.15-1.094 0-2.034 0.027-2.971-0.011-0.449-0.02-0.688 0.126-0.904 0.52-0.892 1.617-1.821 3.212-2.735 4.815-0.429 0.754-0.427 0.756-1.248 0.6-0.733-0.14-1.468-0.263-2.195-0.432-0.467-0.11-0.931-0.108-1.401-0.118-0.447-0.011-0.789 0.171-1.095 0.546 0.602 0.529 1.265 0.921 1.912 1.32 1.688 1.037 3.335 2.132 5.195 2.886 1.421 0.575 2.883 1.149 3.908 2.407 1.493 1.832 3.358 3.294 4.998 4.98 0.623 0.639 1.344 1.131 2.112 1.586 3.688 2.178 6.92 4.863 9.288 8.484 1.23 1.878 2.371 3.801 2.609 6.104 0.037 0.342 0.277 0.286 0.488 0.289 1.965 0.034 3.931 0.049 5.897 0.104C95.032 72.908 95.058 72.736 94.996 72.358z" data-fill-palette-color="accent"></path><path fill="#000000" d="M54.489 70.436c-0.393-0.672-0.874-1.279-1.397-1.853-1.945-2.135-4.142-4.001-6.318-5.89-2.931-2.541-5.87-5.068-8.34-8.087-1.545-1.89-3-3.821-3.961-6.093-1.001-2.362-1.873-4.776-2.836-7.153-0.156-0.385-0.215-0.795-0.241-1.214-0.062-0.994-0.153-1.985-0.246-2.977-0.134-1.453 0.144-2.857 0.993-4.1 0.071-0.104 0.208-0.199 0.026-0.416-0.574 0.348-1.144 0.726-1.743 1.05-1.08 0.583-1.652 1.503-1.872 2.677-0.03 0.165-0.051 0.329-0.066 0.493-0.128 1.469 0.049 2.929 0.097 4.393 0.043 1.358 0.395 2.611 0.89 3.852 0.685 1.716 1.314 3.455 2.026 5.161 0.66 1.579 1.407 3.119 2.393 4.533 1.893 2.716 4.119 5.139 6.471 7.454 1.936 1.902 3.942 3.736 5.754 5.764 0.666 0.743 1.309 1.509 1.763 2.401 0.289 0.562 0.55 1.152 0.174 2.003 2.081 0 4.018 0 5.953 0.001 0.95 0 1.15-0.259 0.866-1.177C54.785 70.973 54.643 70.695 54.489 70.436z" data-fill-palette-color="accent"></path><path fill="#000000" d="M40.693 68.826c-1.387-1.98-3.098-3.687-4.675-5.506-1.994-2.303-3.959-4.629-5.462-7.297-1.274-2.268-2.245-4.674-3.066-7.134-0.411-1.227-0.876-2.445-1.053-3.739-0.343-2.495-0.056-4.972 0.176-7.454 0.037-0.406 0.385-0.716 0.32-1.14-0.166-0.012-0.247 0.06-0.334 0.128-1.083 0.876-1.681 2.035-1.933 3.377-0.179 0.951-0.301 1.913-0.464 2.867-0.289 1.676-0.39 3.368-0.132 5.045 0.503 3.297 1.506 6.44 2.979 9.44 1.459 2.971 3.378 5.637 5.292 8.312 0.851 1.191 1.749 2.353 2.385 3.682 0.416 0.866 0.657 1.756 0.115 2.868 2.151 0 4.144 0.002 6.136-0.001 0.671-0.001 0.8-0.138 0.822-0.815 0.013-0.397-0.084-0.771-0.237-1.13C41.331 69.796 41.027 69.302 40.693 68.826z" data-fill-palette-color="accent"></path><path fill="#000000" d="M71.833 47.306c0.773 0.395 1.508 0.218 2.203-0.185 0.762-0.442 1.548-0.875 1.81-1.83 0.466-1.7 0.935-3.4 1.426-5.094 0.089-0.305 0.037-0.512-0.14-0.758-0.295-0.412-0.622-0.656-1.172-0.582-0.407 0.056-0.831 0.044-1.242-0.001-0.492-0.055-0.721 0.117-0.894 0.597-0.66 1.84-1.381 3.659-2.062 5.49-0.255 0.684-0.573 1.315-1.215 1.831C70.98 47.077 71.441 47.107 71.833 47.306z" data-fill-palette-color="accent"></path><path fill="#000000" d="M75.627 48.175c-0.339-0.013-0.673-0.048-1.143 0.084 1.777 0.556 3.368 1.229 4.993 1.81 0.727 0.26 1.475 0.461 2.268 0.428 1.087-0.045 1.682-0.532 1.908-1.598 0.04-0.19 0.04-0.388 0.092-0.574 0.079-0.294 0.012-0.53-0.178-0.767-1.093-1.355-2.172-2.72-3.32-4.162-0.167 0.28-0.178 0.5-0.217 0.715-0.146 0.816-0.274 1.636-0.566 2.416-0.392 1.042-1.163 1.586-2.26 1.651C76.681 48.211 76.152 48.198 75.627 48.175z" data-fill-palette-color="accent"></path><path fill="#000000" d="M20.285 39.799c0.846-0.351 1.47-0.783 2.139-1.166C21.312 38.195 20.846 38.919 20.285 39.799z" data-fill-palette-color="accent"></path></g></svg></g></svg></g><g id="text-0"><path d="M33.255 105.611l-1.472 4.312c-0.035 0.101-0.115 0.13-0.242 0.087v0l-26.169-9.021c-0.101-0.035-0.134-0.102-0.1-0.204v0l1.59-4.653c0.035-0.101 0.115-0.172 0.242-0.214v0l6.217-1.75-3.848-5.187c-0.075-0.11-0.096-0.216-0.061-0.317v0l1.602-4.691c0.035-0.101 0.102-0.134 0.203-0.1v0l26.221 8.869c0.126 0.043 0.172 0.115 0.138 0.217v0l-1.469 4.302c-0.035 0.101-0.115 0.13-0.242 0.087v0l-19.46-6.603 4.431 5.99-7.153 1.98 19.435 6.679c0.126 0.043 0.172 0.115 0.137 0.217z" fill="#000000" data-fill-palette-color="primary"></path><path d="M56.619 65.035v0c-0.951 1.093-2.095 1.85-3.434 2.27-1.343 0.415-2.715 0.497-4.114 0.244-1.395-0.258-2.649-0.871-3.763-1.839v0l-9.615-8.417c-1.113-0.968-1.894-2.116-2.341-3.443-0.443-1.332-0.542-2.693-0.299-4.082 0.249-1.385 0.84-2.614 1.774-3.687v0c0.951-1.093 2.086-1.849 3.405-2.267 1.325-0.414 2.677-0.494 4.058-0.24 1.381 0.254 2.628 0.865 3.741 1.833v0l9.668 8.356c1.113 0.968 1.896 2.123 2.35 3.464 0.453 1.341 0.567 2.705 0.341 4.093-0.23 1.384-0.821 2.622-1.771 3.715zM52.939 61.835v0c0.53-0.61 0.746-1.356 0.646-2.239-0.1-0.892-0.462-1.61-1.087-2.153v0l-9.668-8.356c-0.665-0.578-1.418-0.857-2.259-0.836-0.832 0.02-1.53 0.355-2.095 1.004v0c-0.548 0.63-0.788 1.363-0.719 2.201 0.068 0.847 0.445 1.569 1.13 2.165v0l9.642 8.386c0.665 0.578 1.432 0.851 2.3 0.819 0.859-0.031 1.563-0.362 2.11-0.991z" fill="#000000" data-fill-palette-color="primary"></path><path d="M89.987 38.956l-4.307 2.289c-0.094 0.05-0.185 0.023-0.271-0.082v0l-17.9-21.833c-0.074-0.082-0.052-0.154 0.066-0.217v0l4.023-2.138c0.094-0.05 0.178-0.034 0.252 0.047v0l11.582 14.746-5.816-17.811c-0.027-0.107 0.007-0.185 0.101-0.235v0l3.98-2.116c0.124-0.066 0.199-0.045 0.225 0.062v0l8.147 27.017c0.039 0.13 0.011 0.221-0.082 0.271z" fill="#000000" data-fill-palette-color="primary"></path><path d="M124.839 27.919l-4.491 0.772c-0.132 0.023-0.209-0.032-0.231-0.163v0l-4.65-27.287c-0.018-0.105 0.025-0.167 0.131-0.185v0l4.451-0.765c0.105-0.018 0.167 0.025 0.185 0.13v0l4.729 27.274c0.023 0.132-0.019 0.206-0.124 0.224z" fill="#000000" data-fill-palette-color="primary"></path><path d="M165.329 29.711l-12.853-2.01c-0.106-0.017-0.148-0.091-0.127-0.222v0l4.315-27.342c0.017-0.106 0.078-0.15 0.183-0.134v0l12.774 1.997c0.112 0.018 0.158 0.092 0.137 0.225v0l-0.698 4.462c-0.017 0.106-0.081 0.15-0.193 0.132v0l-8.153-1.275-0.969 6.204 8.153 1.275c0.112 0.018 0.16 0.079 0.143 0.184v0l-0.664 4.508c-0.017 0.106-0.081 0.15-0.193 0.132v0l-8.193-1.28-1.089 6.965 8.193 1.281c0.112 0.018 0.158 0.092 0.137 0.224v0l-0.71 4.542c-0.017 0.106-0.081 0.15-0.193 0.132z" fill="#000000" data-fill-palette-color="primary"></path><path d="M203.623 32.817l-6.85-3.69c-0.118-0.063-0.151-0.142-0.1-0.236v0l2.08-3.862c0.051-0.094 0.135-0.109 0.252-0.046v0l6.851 3.69c0.118 0.063 0.151 0.142 0.1 0.236v0l-2.08 3.862c-0.051 0.094-0.135 0.109-0.253 0.046z" fill="#000000" data-fill-palette-color="primary"></path><path d="M224.565 65.722l-4.809-5.373c-0.088-0.1-0.083-0.194 0.017-0.282v0l20.781-18.286c0.08-0.071 0.155-0.066 0.226 0.014v0l5.022 5.613c1.002 1.092 1.636 2.337 1.9 3.734 0.27 1.393 0.186 2.764-0.251 4.114-0.433 1.355-1.204 2.523-2.313 3.505v0l-8.655 7.66c-1.165 1.031-2.477 1.689-3.937 1.973-1.45 0.285-2.874 0.203-4.27-0.246-1.401-0.445-2.638-1.253-3.711-2.426zM240.284 48.533l-13.69 12.063 1.653 1.867c0.659 0.745 1.477 1.145 2.452 1.2 0.976 0.045 1.827-0.253 2.552-0.894v0l8.684-7.686c0.645-0.571 0.997-1.301 1.056-2.192 0.05-0.891-0.221-1.65-0.812-2.277v0z" fill="#000000" data-fill-palette-color="primary"></path><path d="M245.537 101.857l-2.46-6.777c-0.036-0.1 0.008-0.173 0.133-0.219v0l26.046-9.371c0.1-0.036 0.169-0.004 0.206 0.096v0l2.638 7.267c0.524 1.443 0.644 2.859 0.36 4.248-0.278 1.387-0.866 2.612-1.766 3.677-0.897 1.071-2.016 1.851-3.359 2.339v0c-1.086 0.394-2.182 0.515-3.288 0.363-1.115-0.156-2.087-0.467-2.917-0.934v0c-0.464 0.992-1.102 1.867-1.914 2.624-0.814 0.75-1.752 1.318-2.812 1.702v0c-1.462 0.531-2.931 0.663-4.406 0.396-1.466-0.263-2.775-0.864-3.926-1.803-1.159-0.943-2.004-2.145-2.535-3.608zM266.549 91.619l-5.94 2.156 1.042 2.871c0.321 0.885 0.888 1.489 1.702 1.812 0.817 0.314 1.59 0.339 2.318 0.075v0c0.81-0.294 1.408-0.838 1.794-1.632 0.378-0.798 0.42-1.601 0.126-2.411v0zM256.024 95.44l-6.716 2.395 0.851 2.344c0.33 0.91 0.948 1.574 1.853 1.991 0.908 0.409 1.818 0.448 2.727 0.118v0c0.91-0.33 1.573-0.94 1.989-1.83 0.42-0.898 0.464-1.802 0.134-2.712v0z" fill="#000000" data-fill-palette-color="primary"></path><path d="M6.555 183.392l-1.5-4.377c-0.037-0.107 0.008-0.183 0.134-0.226v0l26.631-9.033c0.101-0.035 0.169-0.001 0.204 0.1v0l1.617 4.718c0.037 0.107 0.018 0.216-0.058 0.326v0l-3.907 5.278 6.323 1.771c0.127 0.041 0.208 0.112 0.243 0.213v0l1.633 4.765c0.035 0.101 0.001 0.169-0.099 0.204v0l-26.576 9.194c-0.126 0.043-0.207 0.014-0.241-0.087v0l-1.501-4.377c-0.035-0.101 0.011-0.173 0.138-0.216v0l19.73-6.805-7.276-2.048 4.503-6.043-19.756 6.73c-0.126 0.043-0.207 0.014-0.242-0.087z" fill="#000000" data-fill-palette-color="primary"></path><path d="M34.823 233.951v0c-0.965-1.107-1.563-2.366-1.794-3.778-0.235-1.407-0.126-2.796 0.328-4.165 0.449-1.375 1.237-2.554 2.363-3.536v0l9.808-8.501c1.132-0.987 2.398-1.608 3.797-1.863 1.4-0.264 2.783-0.177 4.149 0.262 1.361 0.443 2.515 1.208 3.463 2.295v0c0.97 1.112 1.573 2.362 1.809 3.751 0.231 1.393 0.121 2.765-0.331 4.115-0.447 1.346-1.236 2.513-2.368 3.501v0l-9.756 8.561c-1.127 0.983-2.396 1.611-3.805 1.884-1.41 0.273-2.796 0.197-4.158-0.228-1.367-0.42-2.536-1.186-3.505-2.298zM38.559 230.693v0c0.54 0.619 1.263 0.94 2.17 0.965 0.907 0.024 1.677-0.24 2.311-0.794v0l9.755-8.56c0.679-0.592 1.067-1.311 1.162-2.157 0.096-0.845-0.144-1.597-0.718-2.256v0c-0.553-0.634-1.258-0.976-2.117-1.025-0.858-0.049-1.636 0.231-2.335 0.841v0l-9.782 8.531c-0.674 0.588-1.055 1.319-1.144 2.193-0.088 0.874 0.144 1.628 0.698 2.262z" fill="#000000" data-fill-palette-color="primary"></path><path d="M76.917 265.851l-4.379-2.321c-0.094-0.05-0.122-0.14-0.084-0.271v0l8.181-27.491c0.026-0.107 0.099-0.129 0.217-0.067v0l4.088 2.167c0.094 0.05 0.128 0.129 0.102 0.236v0l-5.817 18.135 11.674-15.03c0.074-0.082 0.161-0.096 0.261-0.043v0l4.044 2.143c0.124 0.066 0.149 0.139 0.075 0.222v0l-18.091 22.237c-0.086 0.105-0.176 0.133-0.271 0.083z" fill="#000000" data-fill-palette-color="primary"></path><path d="M120.15 279.71l-4.56-0.782c-0.138-0.024-0.196-0.101-0.173-0.233v0l4.805-27.708c0.018-0.105 0.08-0.149 0.185-0.131v0l4.521 0.776c0.105 0.018 0.149 0.08 0.13 0.185v0l-4.716 27.723c-0.023 0.132-0.087 0.188-0.192 0.17z" fill="#000000" data-fill-palette-color="primary"></path><path d="M169.757 277.962l-13.061 2.035c-0.112 0.017-0.178-0.04-0.199-0.172v0l-4.28-27.793c-0.016-0.106 0.028-0.167 0.133-0.183v0l12.983-2.023c0.106-0.016 0.169 0.041 0.189 0.173v0l0.706 4.532c0.016 0.106-0.028 0.167-0.134 0.183v0l-8.292 1.292 0.984 6.313 8.292-1.292c0.106-0.016 0.167 0.028 0.183 0.134v0l0.752 4.565c0.016 0.106-0.028 0.167-0.134 0.183v0l-8.331 1.299 1.102 7.075 8.332-1.299c0.106-0.016 0.169 0.045 0.191 0.184v0l0.718 4.611c0.016 0.106-0.028 0.167-0.134 0.183z" fill="#000000" data-fill-palette-color="primary"></path><path d="M205.848 251.189l-6.96 3.739c-0.118 0.063-0.202 0.048-0.253-0.046v0l-2.113-3.935c-0.051-0.094-0.017-0.173 0.1-0.236v0l6.961-3.739c0.118-0.063 0.202-0.048 0.252 0.046v0l2.114 3.935c0.051 0.094 0.017 0.173-0.101 0.236z" fill="#000000" data-fill-palette-color="primary"></path><path d="M245.539 232.853l-4.83 5.501c-0.093 0.105-0.19 0.113-0.29 0.025v0l-20.971-18.735c-0.08-0.071-0.084-0.146-0.013-0.227v0l5.049-5.748c0.977-1.141 2.153-1.932 3.526-2.374 1.374-0.441 2.769-0.524 4.185-0.249 1.416 0.275 2.686 0.911 3.809 1.908v0l8.786 7.799c1.183 1.05 2.007 2.29 2.47 3.719 0.459 1.434 0.548 2.883 0.266 4.347-0.277 1.468-0.939 2.813-1.987 4.034zM226.282 219.095l13.837 12.335 1.682-1.895c0.669-0.754 0.972-1.628 0.908-2.622-0.068-0.989-0.469-1.809-1.203-2.461v0l-8.816-7.824c-0.654-0.581-1.434-0.844-2.338-0.79-0.905 0.054-1.638 0.417-2.198 1.088v0z" fill="#000000" data-fill-palette-color="primary"></path><path d="M272.032 187.722l-2.508 6.877c-0.039 0.107-0.121 0.137-0.247 0.092v0l-26.388-9.719c-0.1-0.037-0.132-0.105-0.096-0.205v0l2.693-7.386c0.531-1.455 1.358-2.632 2.481-3.53 1.13-0.896 2.393-1.466 3.79-1.709 1.399-0.25 2.776-0.128 4.13 0.365v0c1.104 0.403 2.038 1.027 2.802 1.875 0.764 0.847 1.315 1.723 1.654 2.628v0c1.016-0.468 2.086-0.732 3.209-0.791 1.121-0.053 2.221 0.117 3.299 0.51v0c1.487 0.542 2.714 1.395 3.683 2.558 0.966 1.17 1.595 2.497 1.885 3.982 0.284 1.482 0.155 2.967-0.387 4.453zM248.992 181.975l6.04 2.202 1.067-2.926c0.327-0.897 0.276-1.733-0.151-2.507-0.426-0.781-1.012-1.307-1.759-1.579v0c-0.822-0.3-1.641-0.264-2.458 0.105-0.817 0.37-1.374 0.963-1.672 1.778v0zM259.68 185.872l6.789 2.518 0.868-2.38c0.336-0.922 0.288-1.842-0.145-2.761-0.435-0.912-1.113-1.536-2.035-1.872v0c-0.922-0.336-1.84-0.294-2.754 0.126-0.91 0.429-1.533 1.104-1.868 2.026v0z" fill="#000000" data-fill-palette-color="primary"></path><path d="M2.934 139.881c0-6.009 4.871-10.88 10.88-10.88 6.009 0 10.88 4.871 10.88 10.88 0 6.009-4.871 10.88-10.88 10.88-6.009 0-10.88-4.871-10.88-10.88z" fill="#000000" data-fill-palette-color="primary"></path><path d="M255.306 139.881c0-6.009 4.871-10.88 10.88-10.88 6.009 0 10.88 4.871 10.88 10.88 0 6.009-4.871 10.88-10.88 10.88-6.009 0-10.88-4.871-10.88-10.88z" fill="#000000" data-fill-palette-color="primary"></path></g><g id="text-1"></g></svg></g></svg></g></svg></g></svg></g><defs></defs></svg><rect width="280" height="280" fill="none" stroke="none" visibility="hidden"></rect></g></svg></g></svg>